<svg xmlns="http://www.w3.org/2000/svg" xmlns:xlink="http://www.w3.org/1999/xlink" width="500" zoomAndPan="magnify" viewBox="0 0 375 374.999991" height="500" preserveAspectRatio="xMidYMid meet" version="1.0"><defs><clipPath id="47fe904cc7"><path d="M 201.171875 81.964844 L 343.558594 81.964844 L 343.558594 299 L 201.171875 299 Z M 201.171875 81.964844 " clip-rule="nonzero"/></clipPath><clipPath id="96b0c5afce"><path d="M 256.945312 81.964844 L 257.160156 81.964844 L 257.160156 250.183594 L 256.945312 250.183594 Z M 256.945312 250.183594 L 343.558594 250.183594 L 343.558594 298.988281 L 256.945312 298.988281 Z M 256.945312 250.183594 " clip-rule="nonzero"/></clipPath><linearGradient x1="341.599993" gradientTransform="matrix(0.271278, 0, 0, 0.271278, 164.275224, 81.965118)" y1="400" x2="660.880301" gradientUnits="userSpaceOnUse" y2="400" id="20ff6e0376"><stop stop-opacity="1" stop-color="rgb(33.299255%, 14.498901%, 0%)" offset="0"/><stop stop-opacity="1" stop-color="rgb(33.726501%, 14.927673%, 0.15564%)" offset="0.00390625"/><stop stop-opacity="1" stop-color="rgb(34.155273%, 15.356445%, 0.311279%)" offset="0.0078125"/><stop stop-opacity="1" stop-color="rgb(35.40802%, 16.607666%, 0.765991%)" offset="0.0117188"/><stop stop-opacity="1" stop-color="rgb(36.660767%, 17.860413%, 1.220703%)" offset="0.015625"/><stop stop-opacity="1" stop-color="rgb(37.886047%, 19.081116%, 1.661682%)" offset="0.0195313"/><stop stop-opacity="1" stop-color="rgb(39.111328%, 20.301819%, 2.102661%)" offset="0.0234375"/><stop stop-opacity="1" stop-color="rgb(40.180969%, 21.340942%, 2.459717%)" offset="0.0273438"/><stop stop-opacity="1" stop-color="rgb(41.252136%, 22.381592%, 2.816772%)" offset="0.03125"/><stop stop-opacity="1" stop-color="rgb(42.321777%, 23.420715%, 3.172302%)" offset="0.0351562"/><stop stop-opacity="1" stop-color="rgb(43.391418%, 24.461365%, 3.529358%)" offset="0.0390625"/><stop stop-opacity="1" stop-color="rgb(44.46106%, 25.500488%, 3.886414%)" offset="0.0429688"/><stop stop-opacity="1" stop-color="rgb(45.532227%, 26.541138%, 4.243469%)" offset="0.046875"/><stop stop-opacity="1" stop-color="rgb(46.601868%, 27.580261%, 4.598999%)" offset="0.0507812"/><stop stop-opacity="1" stop-color="rgb(47.671509%, 28.619385%, 4.956055%)" offset="0.0546875"/><stop stop-opacity="1" stop-color="rgb(48.74115%, 29.658508%, 5.31311%)" offset="0.0585938"/><stop stop-opacity="1" stop-color="rgb(49.812317%, 30.699158%, 5.670166%)" offset="0.0625"/><stop stop-opacity="1" stop-color="rgb(50.881958%, 31.738281%, 6.025696%)" offset="0.0664063"/><stop stop-opacity="1" stop-color="rgb(51.951599%, 32.778931%, 6.382751%)" offset="0.0703125"/><stop stop-opacity="1" stop-color="rgb(52.893066%, 33.706665%, 6.700134%)" offset="0.0742188"/><stop stop-opacity="1" stop-color="rgb(53.83606%, 34.635925%, 7.019043%)" offset="0.078125"/><stop stop-opacity="1" stop-color="rgb(54.676819%, 35.476685%, 7.305908%)" offset="0.0820313"/><stop stop-opacity="1" stop-color="rgb(55.517578%, 36.317444%, 7.592773%)" offset="0.0859375"/><stop stop-opacity="1" stop-color="rgb(56.358337%, 37.158203%, 7.879639%)" offset="0.0898438"/><stop stop-opacity="1" stop-color="rgb(57.199097%, 38.000488%, 8.166504%)" offset="0.09375"/><stop stop-opacity="1" stop-color="rgb(58.039856%, 38.841248%, 8.453369%)" offset="0.0976563"/><stop stop-opacity="1" stop-color="rgb(58.882141%, 39.682007%, 8.740234%)" offset="0.101563"/><stop stop-opacity="1" stop-color="rgb(59.7229%, 40.522766%, 9.0271%)" offset="0.105469"/><stop stop-opacity="1" stop-color="rgb(60.56366%, 41.363525%, 9.313965%)" offset="0.109375"/><stop stop-opacity="1" stop-color="rgb(61.404419%, 42.204285%, 9.60083%)" offset="0.113281"/><stop stop-opacity="1" stop-color="rgb(62.245178%, 43.045044%, 9.889221%)" offset="0.117188"/><stop stop-opacity="1" stop-color="rgb(63.085938%, 43.885803%, 10.176086%)" offset="0.121094"/><stop stop-opacity="1" stop-color="rgb(63.926697%, 44.726562%, 10.462952%)" offset="0.125"/><stop stop-opacity="1" stop-color="rgb(64.756775%, 45.555115%, 10.746765%)" offset="0.128906"/><stop stop-opacity="1" stop-color="rgb(65.586853%, 46.383667%, 11.030579%)" offset="0.132812"/><stop stop-opacity="1" stop-color="rgb(66.262817%, 47.033691%, 11.270142%)" offset="0.136719"/><stop stop-opacity="1" stop-color="rgb(66.938782%, 47.685242%, 11.509705%)" offset="0.140625"/><stop stop-opacity="1" stop-color="rgb(67.61322%, 48.336792%, 11.749268%)" offset="0.144531"/><stop stop-opacity="1" stop-color="rgb(68.289185%, 48.988342%, 11.988831%)" offset="0.148438"/><stop stop-opacity="1" stop-color="rgb(68.965149%, 49.638367%, 12.228394%)" offset="0.152344"/><stop stop-opacity="1" stop-color="rgb(69.641113%, 50.289917%, 12.467957%)" offset="0.15625"/><stop stop-opacity="1" stop-color="rgb(70.317078%, 50.941467%, 12.70752%)" offset="0.160156"/><stop stop-opacity="1" stop-color="rgb(70.993042%, 51.593018%, 12.947083%)" offset="0.164062"/><stop stop-opacity="1" stop-color="rgb(71.669006%, 52.244568%, 13.186646%)" offset="0.167969"/><stop stop-opacity="1" stop-color="rgb(72.344971%, 52.896118%, 13.426208%)" offset="0.171875"/><stop stop-opacity="1" stop-color="rgb(73.019409%, 53.546143%, 13.665771%)" offset="0.175781"/><stop stop-opacity="1" stop-color="rgb(73.695374%, 54.197693%, 13.905334%)" offset="0.179688"/><stop stop-opacity="1" stop-color="rgb(74.371338%, 54.849243%, 14.144897%)" offset="0.183594"/><stop stop-opacity="1" stop-color="rgb(75.047302%, 55.500793%, 14.38446%)" offset="0.1875"/><stop stop-opacity="1" stop-color="rgb(75.723267%, 56.150818%, 14.624023%)" offset="0.191406"/><stop stop-opacity="1" stop-color="rgb(76.399231%, 56.802368%, 14.863586%)" offset="0.195313"/><stop stop-opacity="1" stop-color="rgb(76.876831%, 57.278442%, 15.014648%)" offset="0.199219"/><stop stop-opacity="1" stop-color="rgb(77.355957%, 57.754517%, 15.167236%)" offset="0.203125"/><stop stop-opacity="1" stop-color="rgb(77.816772%, 58.216858%, 15.312195%)" offset="0.207031"/><stop stop-opacity="1" stop-color="rgb(78.279114%, 58.679199%, 15.458679%)" offset="0.210938"/><stop stop-opacity="1" stop-color="rgb(78.741455%, 59.141541%, 15.603638%)" offset="0.214844"/><stop stop-opacity="1" stop-color="rgb(79.203796%, 59.603882%, 15.748596%)" offset="0.21875"/><stop stop-opacity="1" stop-color="rgb(79.666138%, 60.066223%, 15.893555%)" offset="0.222656"/><stop stop-opacity="1" stop-color="rgb(80.128479%, 60.528564%, 16.038513%)" offset="0.226562"/><stop stop-opacity="1" stop-color="rgb(80.59082%, 60.990906%, 16.183472%)" offset="0.230469"/><stop stop-opacity="1" stop-color="rgb(81.053162%, 61.453247%, 16.32843%)" offset="0.234375"/><stop stop-opacity="1" stop-color="rgb(81.515503%, 61.915588%, 16.473389%)" offset="0.238281"/><stop stop-opacity="1" stop-color="rgb(81.977844%, 62.37793%, 16.619873%)" offset="0.242188"/><stop stop-opacity="1" stop-color="rgb(82.440186%, 62.840271%, 16.764832%)" offset="0.246094"/><stop stop-opacity="1" stop-color="rgb(82.902527%, 63.302612%, 16.90979%)" offset="0.25"/><stop stop-opacity="1" stop-color="rgb(83.364868%, 63.764954%, 17.054749%)" offset="0.253906"/><stop stop-opacity="1" stop-color="rgb(83.827209%, 64.227295%, 17.199707%)" offset="0.257812"/><stop stop-opacity="1" stop-color="rgb(84.289551%, 64.689636%, 17.344666%)" offset="0.261719"/><stop stop-opacity="1" stop-color="rgb(84.751892%, 65.151978%, 17.489624%)" offset="0.265625"/><stop stop-opacity="1" stop-color="rgb(85.119629%, 65.519714%, 17.61322%)" offset="0.269531"/><stop stop-opacity="1" stop-color="rgb(85.488892%, 65.888977%, 17.738342%)" offset="0.273438"/><stop stop-opacity="1" stop-color="rgb(85.801697%, 66.201782%, 17.849731%)" offset="0.277344"/><stop stop-opacity="1" stop-color="rgb(86.114502%, 66.514587%, 17.962646%)" offset="0.28125"/><stop stop-opacity="1" stop-color="rgb(86.425781%, 66.825867%, 18.074036%)" offset="0.285156"/><stop stop-opacity="1" stop-color="rgb(86.738586%, 67.138672%, 18.186951%)" offset="0.289063"/><stop stop-opacity="1" stop-color="rgb(87.051392%, 67.451477%, 18.29834%)" offset="0.292969"/><stop stop-opacity="1" stop-color="rgb(87.364197%, 67.764282%, 18.411255%)" offset="0.296875"/><stop stop-opacity="1" stop-color="rgb(87.675476%, 68.075562%, 18.522644%)" offset="0.300781"/><stop stop-opacity="1" stop-color="rgb(87.988281%, 68.388367%, 18.634033%)" offset="0.304688"/><stop stop-opacity="1" stop-color="rgb(88.301086%, 68.701172%, 18.745422%)" offset="0.308594"/><stop stop-opacity="1" stop-color="rgb(88.613892%, 69.013977%, 18.858337%)" offset="0.3125"/><stop stop-opacity="1" stop-color="rgb(88.925171%, 69.325256%, 18.969727%)" offset="0.316406"/><stop stop-opacity="1" stop-color="rgb(89.237976%, 69.638062%, 19.082642%)" offset="0.320313"/><stop stop-opacity="1" stop-color="rgb(89.550781%, 69.950867%, 19.194031%)" offset="0.324219"/><stop stop-opacity="1" stop-color="rgb(89.863586%, 70.263672%, 19.30542%)" offset="0.328125"/><stop stop-opacity="1" stop-color="rgb(90.174866%, 70.574951%, 19.416809%)" offset="0.332031"/><stop stop-opacity="1" stop-color="rgb(90.487671%, 70.887756%, 19.529724%)" offset="0.335938"/><stop stop-opacity="1" stop-color="rgb(90.800476%, 71.200562%, 19.641113%)" offset="0.339844"/><stop stop-opacity="1" stop-color="rgb(91.113281%, 71.513367%, 19.754028%)" offset="0.34375"/><stop stop-opacity="1" stop-color="rgb(91.424561%, 71.824646%, 19.865417%)" offset="0.347656"/><stop stop-opacity="1" stop-color="rgb(91.737366%, 72.137451%, 19.976807%)" offset="0.351562"/><stop stop-opacity="1" stop-color="rgb(91.914368%, 72.314453%, 20.042419%)" offset="0.359375"/><stop stop-opacity="1" stop-color="rgb(92.251587%, 72.651672%, 20.167542%)" offset="0.367188"/><stop stop-opacity="1" stop-color="rgb(92.575073%, 72.975159%, 20.288086%)" offset="0.375"/><stop stop-opacity="1" stop-color="rgb(92.89856%, 73.298645%, 20.407104%)" offset="0.382813"/><stop stop-opacity="1" stop-color="rgb(93.222046%, 73.622131%, 20.527649%)" offset="0.390625"/><stop stop-opacity="1" stop-color="rgb(93.545532%, 73.944092%, 20.648193%)" offset="0.398438"/><stop stop-opacity="1" stop-color="rgb(93.867493%, 74.267578%, 20.768738%)" offset="0.40625"/><stop stop-opacity="1" stop-color="rgb(94.190979%, 74.591064%, 20.889282%)" offset="0.414063"/><stop stop-opacity="1" stop-color="rgb(94.514465%, 74.914551%, 21.008301%)" offset="0.421875"/><stop stop-opacity="1" stop-color="rgb(94.837952%, 75.238037%, 21.128845%)" offset="0.429688"/><stop stop-opacity="1" stop-color="rgb(95.159912%, 75.559998%, 21.24939%)" offset="0.4375"/><stop stop-opacity="1" stop-color="rgb(95.483398%, 75.883484%, 21.369934%)" offset="0.445312"/><stop stop-opacity="1" stop-color="rgb(95.806885%, 76.20697%, 21.490479%)" offset="0.453125"/><stop stop-opacity="1" stop-color="rgb(96.148682%, 76.548767%, 21.607971%)" offset="0.46875"/><stop stop-opacity="1" stop-color="rgb(96.472168%, 76.872253%, 21.710205%)" offset="0.484375"/><stop stop-opacity="1" stop-color="rgb(96.760559%, 77.160645%, 21.795654%)" offset="0.5"/><stop stop-opacity="1" stop-color="rgb(97.04895%, 77.449036%, 21.881104%)" offset="0.515625"/><stop stop-opacity="1" stop-color="rgb(97.337341%, 77.737427%, 21.966553%)" offset="0.53125"/><stop stop-opacity="1" stop-color="rgb(97.625732%, 78.025818%, 22.052002%)" offset="0.546875"/><stop stop-opacity="1" stop-color="rgb(97.914124%, 78.314209%, 22.137451%)" offset="0.5625"/><stop stop-opacity="1" stop-color="rgb(98.202515%, 78.6026%, 22.2229%)" offset="0.578125"/><stop stop-opacity="1" stop-color="rgb(98.490906%, 78.890991%, 22.30835%)" offset="0.59375"/><stop stop-opacity="1" stop-color="rgb(98.739624%, 79.139709%, 22.383118%)" offset="0.625"/><stop stop-opacity="1" stop-color="rgb(98.965454%, 79.36554%, 22.460938%)" offset="0.75"/><stop stop-opacity="1" stop-color="rgb(99.211121%, 79.611206%, 22.554016%)" offset="0.875"/><stop stop-opacity="1" stop-color="rgb(99.456787%, 79.856873%, 22.645569%)" offset="1"/></linearGradient><clipPath id="03c0159d40"><path d="M 134 179 L 178 179 L 178 281 L 134 281 Z M 134 179 " clip-rule="nonzero"/></clipPath><clipPath id="0cda5e332f"><path d="M 177.886719 222.875 L 177.886719 278.0625 C 177.890625 278.609375 177.746094 279.109375 177.445312 279.566406 C 177.144531 280.019531 176.742188 280.355469 176.242188 280.566406 C 175.738281 280.777344 175.21875 280.828125 174.683594 280.722656 C 174.148438 280.617188 173.6875 280.371094 173.300781 279.984375 L 134.25 240.96875 L 134.25 179.277344 Z M 177.886719 222.875 " clip-rule="nonzero"/></clipPath><linearGradient x1="349.881234" gradientTransform="matrix(0.64021, 0, 0, 0.64021, -33.26776, 26.069459)" y1="379.075532" x2="238.732346" gradientUnits="userSpaceOnUse" y2="260.868639" id="83efc455df"><stop stop-opacity="1" stop-color="rgb(42.399597%, 38.398743%, 100%)" offset="0"/><stop stop-opacity="1" stop-color="rgb(42.399597%, 38.398743%, 100%)" offset="0.287801"/><stop stop-opacity="1" stop-color="rgb(42.399597%, 38.398743%, 100%)" offset="0.5"/><stop stop-opacity="1" stop-color="rgb(42.399597%, 38.398743%, 100%)" offset="0.712199"/><stop stop-opacity="1" stop-color="rgb(42.399597%, 38.398743%, 100%)" offset="0.75"/><stop stop-opacity="1" stop-color="rgb(42.398071%, 38.386536%, 100%)" offset="0.78125"/><stop stop-opacity="1" stop-color="rgb(42.388916%, 38.247681%, 100%)" offset="0.796875"/><stop stop-opacity="1" stop-color="rgb(42.370605%, 37.992859%, 100%)" offset="0.8125"/><stop stop-opacity="1" stop-color="rgb(42.352295%, 37.738037%, 100%)" offset="0.828125"/><stop stop-opacity="1" stop-color="rgb(42.333984%, 37.481689%, 100%)" offset="0.84375"/><stop stop-opacity="1" stop-color="rgb(42.315674%, 37.226868%, 100%)" offset="0.859375"/><stop stop-opacity="1" stop-color="rgb(42.297363%, 36.972046%, 100%)" offset="0.875"/><stop stop-opacity="1" stop-color="rgb(42.280579%, 36.715698%, 100%)" offset="0.890625"/><stop stop-opacity="1" stop-color="rgb(42.262268%, 36.460876%, 100%)" offset="0.90625"/><stop stop-opacity="1" stop-color="rgb(42.243958%, 36.206055%, 100%)" offset="0.921875"/><stop stop-opacity="1" stop-color="rgb(42.225647%, 35.949707%, 100%)" offset="0.9375"/><stop stop-opacity="1" stop-color="rgb(42.207336%, 35.694885%, 100%)" offset="0.953125"/><stop stop-opacity="1" stop-color="rgb(42.189026%, 35.440063%, 100%)" offset="0.96875"/><stop stop-opacity="1" stop-color="rgb(42.172241%, 35.183716%, 100%)" offset="0.984375"/><stop stop-opacity="1" stop-color="rgb(42.153931%, 34.928894%, 100%)" offset="1"/></linearGradient><clipPath id="03f2903bca"><path d="M 47 93 L 135 93 L 135 241 L 47 241 Z M 47 93 " clip-rule="nonzero"/></clipPath><clipPath id="62d6fa572c"><path d="M 134.28125 179.277344 L 134.28125 240.941406 L 90.683594 197.332031 L 47.859375 154.515625 C 47.328125 153.984375 47.066406 153.34375 47.070312 152.59375 L 47.070312 93.667969 C 47.089844 93.402344 47.21875 93.21875 47.464844 93.117188 C 47.710938 93.015625 47.933594 93.050781 48.136719 93.226562 L 90.683594 135.679688 Z M 134.28125 179.277344 " clip-rule="nonzero"/></clipPath><linearGradient x1="293.206429" gradientTransform="matrix(0.64021, 0, 0, 0.64021, -33.26776, 26.069459)" y1="263.14513" x2="94.15786" gradientUnits="userSpaceOnUse" y2="176.653608" id="3c50df3692"><stop stop-opacity="1" stop-color="rgb(29.399109%, 75.698853%, 100%)" offset="0"/><stop stop-opacity="1" stop-color="rgb(29.399109%, 75.698853%, 100%)" offset="0.125"/><stop stop-opacity="1" stop-color="rgb(29.522705%, 75.813293%, 99.969482%)" offset="0.1875"/><stop stop-opacity="1" stop-color="rgb(29.827881%, 76.094055%, 99.897766%)" offset="0.21875"/><stop stop-opacity="1" stop-color="rgb(30.189514%, 76.426697%, 99.812317%)" offset="0.25"/><stop stop-opacity="1" stop-color="rgb(30.551147%, 76.759338%, 99.728394%)" offset="0.28125"/><stop stop-opacity="1" stop-color="rgb(30.912781%, 77.09198%, 99.642944%)" offset="0.3125"/><stop stop-opacity="1" stop-color="rgb(31.274414%, 77.424622%, 99.557495%)" offset="0.34375"/><stop stop-opacity="1" stop-color="rgb(31.636047%, 77.757263%, 99.473572%)" offset="0.375"/><stop stop-opacity="1" stop-color="rgb(31.997681%, 78.089905%, 99.388123%)" offset="0.40625"/><stop stop-opacity="1" stop-color="rgb(32.359314%, 78.422546%, 99.302673%)" offset="0.424301"/><stop stop-opacity="1" stop-color="rgb(32.540894%, 78.588867%, 99.261475%)" offset="0.4375"/><stop stop-opacity="1" stop-color="rgb(32.720947%, 78.755188%, 99.21875%)" offset="0.46875"/><stop stop-opacity="1" stop-color="rgb(33.082581%, 79.08783%, 99.133301%)" offset="0.5"/><stop stop-opacity="1" stop-color="rgb(33.444214%, 79.418945%, 99.047852%)" offset="0.53125"/><stop stop-opacity="1" stop-color="rgb(33.805847%, 79.751587%, 98.963928%)" offset="0.5625"/><stop stop-opacity="1" stop-color="rgb(34.16748%, 80.084229%, 98.878479%)" offset="0.575699"/><stop stop-opacity="1" stop-color="rgb(34.34906%, 80.250549%, 98.835754%)" offset="0.59375"/><stop stop-opacity="1" stop-color="rgb(34.529114%, 80.41687%, 98.79303%)" offset="0.625"/><stop stop-opacity="1" stop-color="rgb(34.890747%, 80.749512%, 98.709106%)" offset="0.65625"/><stop stop-opacity="1" stop-color="rgb(35.25238%, 81.082153%, 98.623657%)" offset="0.6875"/><stop stop-opacity="1" stop-color="rgb(35.614014%, 81.414795%, 98.538208%)" offset="0.71875"/><stop stop-opacity="1" stop-color="rgb(35.975647%, 81.747437%, 98.454285%)" offset="0.75"/><stop stop-opacity="1" stop-color="rgb(36.33728%, 82.080078%, 98.368835%)" offset="0.78125"/><stop stop-opacity="1" stop-color="rgb(36.698914%, 82.41272%, 98.283386%)" offset="0.8125"/><stop stop-opacity="1" stop-color="rgb(37.060547%, 82.745361%, 98.199463%)" offset="0.84375"/><stop stop-opacity="1" stop-color="rgb(37.423706%, 83.078003%, 98.114014%)" offset="0.875"/><stop stop-opacity="1" stop-color="rgb(37.785339%, 83.410645%, 98.028564%)" offset="0.90625"/><stop stop-opacity="1" stop-color="rgb(38.146973%, 83.74176%, 97.944641%)" offset="0.9375"/><stop stop-opacity="1" stop-color="rgb(38.508606%, 84.074402%, 97.859192%)" offset="0.96875"/><stop stop-opacity="1" stop-color="rgb(38.870239%, 84.407043%, 97.773743%)" offset="1"/></linearGradient><clipPath id="52d00dd2cb"><path d="M 134 92 L 178 92 L 178 223 L 134 223 Z M 134 92 " clip-rule="nonzero"/></clipPath><clipPath id="ebcf009b02"><path d="M 177.886719 94.855469 L 177.886719 222.894531 L 134.28125 179.296875 L 134.28125 94.855469 C 134.28125 94.496094 134.351562 94.15625 134.488281 93.828125 C 134.625 93.496094 134.820312 93.207031 135.070312 92.957031 C 135.324219 92.703125 135.613281 92.511719 135.941406 92.375 C 136.273438 92.238281 136.613281 92.171875 136.96875 92.171875 L 175.203125 92.171875 C 175.558594 92.171875 175.902344 92.242188 176.230469 92.378906 C 176.558594 92.511719 176.847656 92.707031 177.097656 92.957031 C 177.351562 93.210938 177.542969 93.5 177.679688 93.828125 C 177.816406 94.15625 177.886719 94.5 177.886719 94.855469 Z M 177.886719 94.855469 " clip-rule="nonzero"/></clipPath><linearGradient x1="295.76999" gradientTransform="matrix(0.64021, 0, 0, 0.64021, -33.26776, 26.069459)" y1="103.249999" x2="295.76999" gradientUnits="userSpaceOnUse" y2="307.439983" id="3c961cc095"><stop stop-opacity="1" stop-color="rgb(53.379822%, 35.612488%, 100%)" offset="0"/><stop stop-opacity="1" stop-color="rgb(53.392029%, 35.748291%, 100%)" offset="0.015625"/><stop stop-opacity="1" stop-color="rgb(53.419495%, 36.018372%, 100%)" offset="0.03125"/><stop stop-opacity="1" stop-color="rgb(53.445435%, 36.289978%, 100%)" offset="0.046875"/><stop stop-opacity="1" stop-color="rgb(53.4729%, 36.561584%, 100%)" offset="0.0625"/><stop stop-opacity="1" stop-color="rgb(53.500366%, 36.831665%, 100%)" offset="0.078125"/><stop stop-opacity="1" stop-color="rgb(53.526306%, 37.103271%, 100%)" offset="0.09375"/><stop stop-opacity="1" stop-color="rgb(53.553772%, 37.374878%, 100%)" offset="0.109375"/><stop stop-opacity="1" stop-color="rgb(53.579712%, 37.646484%, 100%)" offset="0.125"/><stop stop-opacity="1" stop-color="rgb(53.607178%, 37.916565%, 100%)" offset="0.140625"/><stop stop-opacity="1" stop-color="rgb(53.633118%, 38.188171%, 100%)" offset="0.15625"/><stop stop-opacity="1" stop-color="rgb(53.660583%, 38.459778%, 100%)" offset="0.171875"/><stop stop-opacity="1" stop-color="rgb(53.686523%, 38.729858%, 100%)" offset="0.1875"/><stop stop-opacity="1" stop-color="rgb(53.713989%, 39.001465%, 100%)" offset="0.203125"/><stop stop-opacity="1" stop-color="rgb(53.741455%, 39.273071%, 100%)" offset="0.21875"/><stop stop-opacity="1" stop-color="rgb(53.767395%, 39.544678%, 100%)" offset="0.234375"/><stop stop-opacity="1" stop-color="rgb(53.794861%, 39.814758%, 100%)" offset="0.25"/><stop stop-opacity="1" stop-color="rgb(53.820801%, 40.086365%, 100%)" offset="0.265625"/><stop stop-opacity="1" stop-color="rgb(53.848267%, 40.357971%, 100%)" offset="0.28125"/><stop stop-opacity="1" stop-color="rgb(53.874207%, 40.628052%, 100%)" offset="0.296875"/><stop stop-opacity="1" stop-color="rgb(53.901672%, 40.899658%, 100%)" offset="0.3125"/><stop stop-opacity="1" stop-color="rgb(53.927612%, 41.171265%, 100%)" offset="0.328125"/><stop stop-opacity="1" stop-color="rgb(53.955078%, 41.442871%, 100%)" offset="0.34375"/><stop stop-opacity="1" stop-color="rgb(53.982544%, 41.712952%, 100%)" offset="0.359375"/><stop stop-opacity="1" stop-color="rgb(54.008484%, 41.984558%, 100%)" offset="0.375"/><stop stop-opacity="1" stop-color="rgb(54.03595%, 42.256165%, 100%)" offset="0.390625"/><stop stop-opacity="1" stop-color="rgb(54.06189%, 42.526245%, 100%)" offset="0.40625"/><stop stop-opacity="1" stop-color="rgb(54.089355%, 42.797852%, 100%)" offset="0.421875"/><stop stop-opacity="1" stop-color="rgb(54.115295%, 43.069458%, 100%)" offset="0.4375"/><stop stop-opacity="1" stop-color="rgb(54.142761%, 43.339539%, 100%)" offset="0.453125"/><stop stop-opacity="1" stop-color="rgb(54.168701%, 43.611145%, 100%)" offset="0.46875"/><stop stop-opacity="1" stop-color="rgb(54.196167%, 43.882751%, 100%)" offset="0.484375"/><stop stop-opacity="1" stop-color="rgb(54.222107%, 44.154358%, 100%)" offset="0.5"/><stop stop-opacity="1" stop-color="rgb(54.249573%, 44.424438%, 100%)" offset="0.515625"/><stop stop-opacity="1" stop-color="rgb(54.277039%, 44.696045%, 100%)" offset="0.53125"/><stop stop-opacity="1" stop-color="rgb(54.302979%, 44.967651%, 100%)" offset="0.546875"/><stop stop-opacity="1" stop-color="rgb(54.330444%, 45.237732%, 100%)" offset="0.5625"/><stop stop-opacity="1" stop-color="rgb(54.356384%, 45.509338%, 100%)" offset="0.578125"/><stop stop-opacity="1" stop-color="rgb(54.38385%, 45.780945%, 100%)" offset="0.59375"/><stop stop-opacity="1" stop-color="rgb(54.40979%, 46.052551%, 100%)" offset="0.609375"/><stop stop-opacity="1" stop-color="rgb(54.437256%, 46.322632%, 100%)" offset="0.625"/><stop stop-opacity="1" stop-color="rgb(54.463196%, 46.594238%, 100%)" offset="0.640625"/><stop stop-opacity="1" stop-color="rgb(54.490662%, 46.865845%, 100%)" offset="0.65625"/><stop stop-opacity="1" stop-color="rgb(54.518127%, 47.135925%, 100%)" offset="0.671875"/><stop stop-opacity="1" stop-color="rgb(54.544067%, 47.407532%, 100%)" offset="0.6875"/><stop stop-opacity="1" stop-color="rgb(54.571533%, 47.679138%, 100%)" offset="0.703125"/><stop stop-opacity="1" stop-color="rgb(54.597473%, 47.950745%, 100%)" offset="0.71875"/><stop stop-opacity="1" stop-color="rgb(54.624939%, 48.220825%, 100%)" offset="0.734375"/><stop stop-opacity="1" stop-color="rgb(54.650879%, 48.492432%, 100%)" offset="0.75"/><stop stop-opacity="1" stop-color="rgb(54.678345%, 48.764038%, 100%)" offset="0.765625"/><stop stop-opacity="1" stop-color="rgb(54.704285%, 49.034119%, 100%)" offset="0.78125"/><stop stop-opacity="1" stop-color="rgb(54.73175%, 49.305725%, 100%)" offset="0.796875"/><stop stop-opacity="1" stop-color="rgb(54.75769%, 49.577332%, 100%)" offset="0.8125"/><stop stop-opacity="1" stop-color="rgb(54.785156%, 49.848938%, 100%)" offset="0.828125"/><stop stop-opacity="1" stop-color="rgb(54.812622%, 50.119019%, 100%)" offset="0.84375"/><stop stop-opacity="1" stop-color="rgb(54.838562%, 50.390625%, 100%)" offset="0.859375"/><stop stop-opacity="1" stop-color="rgb(54.866028%, 50.662231%, 100%)" offset="0.875"/><stop stop-opacity="1" stop-color="rgb(54.888916%, 50.898743%, 100%)" offset="1"/></linearGradient><clipPath id="002f6f84db"><path d="M 37.5 76.003906 L 187.480469 76.003906 L 187.480469 299.078125 L 37.5 299.078125 Z M 37.5 76.003906 " clip-rule="nonzero"/></clipPath><clipPath id="c1e93965cb"><path d="M 37.5 239 L 97 239 L 97 299.078125 L 37.5 299.078125 Z M 37.5 239 " clip-rule="nonzero"/></clipPath><clipPath id="c62edcbf7d"><path d="M 96.90625 269.367188 C 96.90625 270.339844 96.859375 271.308594 96.761719 272.273438 C 96.667969 273.242188 96.527344 274.199219 96.335938 275.152344 C 96.148438 276.105469 95.910156 277.046875 95.628906 277.976562 C 95.347656 278.90625 95.019531 279.820312 94.648438 280.714844 C 94.277344 281.613281 93.863281 282.492188 93.40625 283.347656 C 92.945312 284.203125 92.449219 285.035156 91.910156 285.84375 C 91.367188 286.652344 90.789062 287.429688 90.175781 288.179688 C 89.558594 288.933594 88.90625 289.652344 88.21875 290.335938 C 87.535156 291.023438 86.816406 291.675781 86.0625 292.292969 C 85.3125 292.90625 84.535156 293.484375 83.726562 294.023438 C 82.917969 294.566406 82.085938 295.0625 81.230469 295.519531 C 80.375 295.980469 79.496094 296.394531 78.601562 296.765625 C 77.703125 297.136719 76.789062 297.464844 75.859375 297.746094 C 74.929688 298.027344 73.988281 298.265625 73.035156 298.453125 C 72.085938 298.644531 71.125 298.785156 70.160156 298.878906 C 69.191406 298.976562 68.222656 299.023438 67.25 299.023438 C 66.28125 299.023438 65.3125 298.976562 64.34375 298.878906 C 63.378906 298.785156 62.417969 298.644531 61.464844 298.453125 C 60.515625 298.265625 59.574219 298.027344 58.644531 297.746094 C 57.714844 297.464844 56.800781 297.136719 55.902344 296.765625 C 55.007812 296.394531 54.128906 295.980469 53.273438 295.519531 C 52.414062 295.0625 51.582031 294.566406 50.777344 294.023438 C 49.96875 293.484375 49.191406 292.90625 48.4375 292.292969 C 47.6875 291.675781 46.96875 291.023438 46.28125 290.335938 C 45.597656 289.652344 44.945312 288.933594 44.328125 288.179688 C 43.710938 287.429688 43.132812 286.652344 42.59375 285.84375 C 42.054688 285.035156 41.554688 284.203125 41.097656 283.347656 C 40.640625 282.492188 40.226562 281.613281 39.855469 280.714844 C 39.484375 279.820312 39.15625 278.90625 38.875 277.976562 C 38.59375 277.046875 38.355469 276.105469 38.167969 275.152344 C 37.976562 274.199219 37.835938 273.242188 37.738281 272.273438 C 37.644531 271.308594 37.597656 270.339844 37.597656 269.367188 C 37.597656 268.398438 37.644531 267.429688 37.738281 266.460938 C 37.835938 265.496094 37.976562 264.535156 38.167969 263.582031 C 38.355469 262.628906 38.59375 261.691406 38.875 260.761719 C 39.15625 259.832031 39.484375 258.917969 39.855469 258.019531 C 40.226562 257.121094 40.640625 256.246094 41.097656 255.390625 C 41.554688 254.53125 42.054688 253.699219 42.59375 252.894531 C 43.132812 252.085938 43.710938 251.304688 44.328125 250.554688 C 44.945312 249.804688 45.597656 249.085938 46.28125 248.398438 C 46.96875 247.710938 47.6875 247.0625 48.4375 246.445312 C 49.191406 245.828125 49.96875 245.25 50.777344 244.710938 C 51.582031 244.171875 52.414062 243.671875 53.273438 243.214844 C 54.128906 242.757812 55.007812 242.34375 55.902344 241.972656 C 56.800781 241.597656 57.714844 241.273438 58.644531 240.992188 C 59.574219 240.707031 60.515625 240.472656 61.464844 240.285156 C 62.417969 240.09375 63.378906 239.953125 64.34375 239.855469 C 65.3125 239.761719 66.28125 239.714844 67.25 239.714844 C 68.222656 239.714844 69.191406 239.761719 70.160156 239.855469 C 71.125 239.953125 72.085938 240.09375 73.035156 240.285156 C 73.988281 240.472656 74.929688 240.707031 75.859375 240.992188 C 76.789062 241.273438 77.703125 241.597656 78.601562 241.972656 C 79.496094 242.34375 80.375 242.757812 81.230469 243.214844 C 82.085938 243.671875 82.917969 244.171875 83.726562 244.710938 C 84.535156 245.25 85.3125 245.828125 86.0625 246.445312 C 86.816406 247.0625 87.535156 247.710938 88.21875 248.398438 C 88.90625 249.085938 89.558594 249.804688 90.175781 250.554688 C 90.789062 251.304688 91.367188 252.085938 91.910156 252.894531 C 92.449219 253.699219 92.945312 254.53125 93.40625 255.390625 C 93.863281 256.246094 94.277344 257.121094 94.648438 258.019531 C 95.019531 258.917969 95.347656 259.832031 95.628906 260.761719 C 95.910156 261.691406 96.148438 262.628906 96.335938 263.582031 C 96.527344 264.535156 96.667969 265.496094 96.761719 266.460938 C 96.859375 267.429688 96.90625 268.398438 96.90625 269.367188 Z M 96.90625 269.367188 " clip-rule="nonzero"/></clipPath><linearGradient x1="121.662791" gradientTransform="matrix(0.64021, 0, 0, 0.64021, -33.26776, 26.069459)" y1="433.591426" x2="192.357941" gradientUnits="userSpaceOnUse" y2="326.469001" id="ca82dcaa81"><stop stop-opacity="1" stop-color="rgb(53.088379%, 32.670593%, 100%)" offset="0"/><stop stop-opacity="1" stop-color="rgb(53.100586%, 32.797241%, 100%)" offset="0.015625"/><stop stop-opacity="1" stop-color="rgb(53.126526%, 33.053589%, 100%)" offset="0.03125"/><stop stop-opacity="1" stop-color="rgb(53.15094%, 33.308411%, 100%)" offset="0.046875"/><stop stop-opacity="1" stop-color="rgb(53.17688%, 33.563232%, 100%)" offset="0.0625"/><stop stop-opacity="1" stop-color="rgb(53.20282%, 33.81958%, 100%)" offset="0.078125"/><stop stop-opacity="1" stop-color="rgb(53.227234%, 34.074402%, 100%)" offset="0.09375"/><stop stop-opacity="1" stop-color="rgb(53.253174%, 34.33075%, 100%)" offset="0.109375"/><stop stop-opacity="1" stop-color="rgb(53.277588%, 34.585571%, 100%)" offset="0.125"/><stop stop-opacity="1" stop-color="rgb(53.303528%, 34.840393%, 100%)" offset="0.140625"/><stop stop-opacity="1" stop-color="rgb(53.327942%, 35.096741%, 100%)" offset="0.15625"/><stop stop-opacity="1" stop-color="rgb(53.353882%, 35.351562%, 100%)" offset="0.171875"/><stop stop-opacity="1" stop-color="rgb(53.378296%, 35.606384%, 100%)" offset="0.1875"/><stop stop-opacity="1" stop-color="rgb(53.404236%, 35.862732%, 100%)" offset="0.203125"/><stop stop-opacity="1" stop-color="rgb(53.42865%, 36.117554%, 100%)" offset="0.21875"/><stop stop-opacity="1" stop-color="rgb(53.45459%, 36.373901%, 100%)" offset="0.234375"/><stop stop-opacity="1" stop-color="rgb(53.479004%, 36.628723%, 100%)" offset="0.25"/><stop stop-opacity="1" stop-color="rgb(53.504944%, 36.883545%, 100%)" offset="0.265625"/><stop stop-opacity="1" stop-color="rgb(53.529358%, 37.139893%, 100%)" offset="0.28125"/><stop stop-opacity="1" stop-color="rgb(53.555298%, 37.394714%, 100%)" offset="0.296875"/><stop stop-opacity="1" stop-color="rgb(53.581238%, 37.651062%, 100%)" offset="0.3125"/><stop stop-opacity="1" stop-color="rgb(53.605652%, 37.905884%, 100%)" offset="0.328125"/><stop stop-opacity="1" stop-color="rgb(53.631592%, 38.160706%, 100%)" offset="0.34375"/><stop stop-opacity="1" stop-color="rgb(53.656006%, 38.417053%, 100%)" offset="0.359375"/><stop stop-opacity="1" stop-color="rgb(53.681946%, 38.671875%, 100%)" offset="0.375"/><stop stop-opacity="1" stop-color="rgb(53.70636%, 38.928223%, 100%)" offset="0.390625"/><stop stop-opacity="1" stop-color="rgb(53.7323%, 39.183044%, 100%)" offset="0.397571"/><stop stop-opacity="1" stop-color="rgb(53.744507%, 39.311218%, 100%)" offset="0.40625"/><stop stop-opacity="1" stop-color="rgb(53.756714%, 39.437866%, 100%)" offset="0.421875"/><stop stop-opacity="1" stop-color="rgb(53.782654%, 39.694214%, 100%)" offset="0.4375"/><stop stop-opacity="1" stop-color="rgb(53.807068%, 39.949036%, 100%)" offset="0.453125"/><stop stop-opacity="1" stop-color="rgb(53.833008%, 40.205383%, 100%)" offset="0.46875"/><stop stop-opacity="1" stop-color="rgb(53.857422%, 40.460205%, 100%)" offset="0.484375"/><stop stop-opacity="1" stop-color="rgb(53.883362%, 40.715027%, 100%)" offset="0.5"/><stop stop-opacity="1" stop-color="rgb(53.907776%, 40.971375%, 100%)" offset="0.515625"/><stop stop-opacity="1" stop-color="rgb(53.933716%, 41.226196%, 100%)" offset="0.53125"/><stop stop-opacity="1" stop-color="rgb(53.95813%, 41.481018%, 100%)" offset="0.546875"/><stop stop-opacity="1" stop-color="rgb(53.98407%, 41.737366%, 100%)" offset="0.5625"/><stop stop-opacity="1" stop-color="rgb(54.01001%, 41.992188%, 100%)" offset="0.578125"/><stop stop-opacity="1" stop-color="rgb(54.034424%, 42.248535%, 100%)" offset="0.59375"/><stop stop-opacity="1" stop-color="rgb(54.060364%, 42.503357%, 100%)" offset="0.602429"/><stop stop-opacity="1" stop-color="rgb(54.072571%, 42.631531%, 100%)" offset="0.609375"/><stop stop-opacity="1" stop-color="rgb(54.084778%, 42.758179%, 100%)" offset="0.625"/><stop stop-opacity="1" stop-color="rgb(54.110718%, 43.014526%, 100%)" offset="0.640625"/><stop stop-opacity="1" stop-color="rgb(54.135132%, 43.269348%, 100%)" offset="0.65625"/><stop stop-opacity="1" stop-color="rgb(54.161072%, 43.525696%, 100%)" offset="0.671875"/><stop stop-opacity="1" stop-color="rgb(54.185486%, 43.780518%, 100%)" offset="0.6875"/><stop stop-opacity="1" stop-color="rgb(54.211426%, 44.035339%, 100%)" offset="0.703125"/><stop stop-opacity="1" stop-color="rgb(54.23584%, 44.291687%, 100%)" offset="0.71875"/><stop stop-opacity="1" stop-color="rgb(54.26178%, 44.546509%, 100%)" offset="0.734375"/><stop stop-opacity="1" stop-color="rgb(54.286194%, 44.802856%, 100%)" offset="0.75"/><stop stop-opacity="1" stop-color="rgb(54.312134%, 45.057678%, 100%)" offset="0.765625"/><stop stop-opacity="1" stop-color="rgb(54.336548%, 45.3125%, 100%)" offset="0.78125"/><stop stop-opacity="1" stop-color="rgb(54.362488%, 45.568848%, 100%)" offset="0.796875"/><stop stop-opacity="1" stop-color="rgb(54.388428%, 45.823669%, 100%)" offset="0.8125"/><stop stop-opacity="1" stop-color="rgb(54.412842%, 46.080017%, 100%)" offset="0.828125"/><stop stop-opacity="1" stop-color="rgb(54.438782%, 46.334839%, 100%)" offset="0.84375"/><stop stop-opacity="1" stop-color="rgb(54.463196%, 46.589661%, 100%)" offset="0.859375"/><stop stop-opacity="1" stop-color="rgb(54.489136%, 46.846008%, 100%)" offset="0.875"/><stop stop-opacity="1" stop-color="rgb(54.51355%, 47.10083%, 100%)" offset="0.890625"/><stop stop-opacity="1" stop-color="rgb(54.53949%, 47.357178%, 100%)" offset="0.90625"/><stop stop-opacity="1" stop-color="rgb(54.563904%, 47.612%, 100%)" offset="0.921875"/><stop stop-opacity="1" stop-color="rgb(54.589844%, 47.866821%, 100%)" offset="0.9375"/><stop stop-opacity="1" stop-color="rgb(54.614258%, 48.123169%, 100%)" offset="0.953125"/><stop stop-opacity="1" stop-color="rgb(54.640198%, 48.377991%, 100%)" offset="0.96875"/><stop stop-opacity="1" stop-color="rgb(54.664612%, 48.632812%, 100%)" offset="0.984375"/><stop stop-opacity="1" stop-color="rgb(54.690552%, 48.88916%, 100%)" offset="1"/></linearGradient></defs><g clip-path="url(#47fe904cc7)"><path fill="#8067bf" d="M 201.195312 298.988281 L 201.195312 81.964844 L 257.160156 81.964844 L 257.160156 250.183594 L 344.351562 250.183594 L 344.351562 298.988281 Z M 201.195312 298.988281 " fill-opacity="1" fill-rule="nonzero"/></g><g clip-path="url(#96b0c5afce)"><path fill="url(#20ff6e0376)" d="M 256.945312 81.964844 L 256.945312 298.988281 L 343.558594 298.988281 L 343.558594 81.964844 Z M 256.945312 81.964844 " fill-rule="nonzero"/></g><g clip-path="url(#03c0159d40)"><g clip-path="url(#0cda5e332f)"><path fill="url(#83efc455df)" d="M 134.25 179.277344 L 134.25 280.828125 L 177.890625 280.828125 L 177.890625 179.277344 Z M 134.25 179.277344 " fill-rule="nonzero"/></g></g><g clip-path="url(#03f2903bca)"><g clip-path="url(#62d6fa572c)"><path fill="url(#3c50df3692)" d="M 47.066406 93.015625 L 47.066406 240.941406 L 134.28125 240.941406 L 134.28125 93.015625 Z M 47.066406 93.015625 " fill-rule="nonzero"/></g></g><g clip-path="url(#52d00dd2cb)"><g clip-path="url(#ebcf009b02)"><path fill="url(#3c961cc095)" d="M 134.28125 92.171875 L 134.28125 222.894531 L 177.886719 222.894531 L 177.886719 92.171875 Z M 134.28125 92.171875 " fill-rule="nonzero"/></g></g><g clip-path="url(#002f6f84db)"><path fill="#ffbd59" d="M 181.375 299.015625 C 180.589844 299.015625 179.839844 298.863281 179.117188 298.558594 C 178.394531 298.253906 177.757812 297.820312 177.207031 297.261719 L 40.023438 160.070312 C 39.246094 159.296875 38.644531 158.402344 38.222656 157.390625 C 37.804688 156.375 37.59375 155.320312 37.597656 154.21875 L 37.597656 82.652344 C 37.589844 82.035156 37.671875 81.429688 37.847656 80.835938 C 38.023438 80.242188 38.28125 79.691406 38.625 79.175781 C 38.96875 78.660156 39.378906 78.210938 39.859375 77.820312 C 40.339844 77.429688 40.863281 77.121094 41.4375 76.890625 C 41.976562 76.679688 42.539062 76.550781 43.113281 76.507812 C 43.691406 76.460938 44.265625 76.503906 44.832031 76.628906 C 45.398438 76.753906 45.933594 76.957031 46.4375 77.242188 C 46.941406 77.527344 47.394531 77.878906 47.796875 78.296875 L 97.386719 128.976562 L 123.582031 155.148438 C 123.816406 155.402344 124.089844 155.464844 124.40625 155.335938 C 124.726562 155.203125 124.878906 154.96875 124.863281 154.625 L 124.863281 88.644531 C 124.863281 88.253906 124.902344 87.867188 124.980469 87.484375 C 125.054688 87.097656 125.167969 86.726562 125.316406 86.367188 C 125.46875 86.003906 125.652344 85.664062 125.867188 85.335938 C 126.085938 85.011719 126.332031 84.710938 126.609375 84.4375 C 126.886719 84.160156 127.1875 83.914062 127.511719 83.695312 C 127.835938 83.480469 128.179688 83.296875 128.539062 83.148438 C 128.902344 82.996094 129.273438 82.886719 129.65625 82.808594 C 130.039062 82.734375 130.425781 82.695312 130.816406 82.695312 L 181.472656 82.695312 C 181.863281 82.695312 182.25 82.734375 182.632812 82.808594 C 183.015625 82.886719 183.386719 83 183.746094 83.148438 C 184.109375 83.296875 184.449219 83.480469 184.777344 83.699219 C 185.101562 83.914062 185.402344 84.160156 185.675781 84.4375 C 185.953125 84.714844 186.199219 85.015625 186.417969 85.339844 C 186.632812 85.664062 186.816406 86.007812 186.964844 86.367188 C 187.117188 86.726562 187.230469 87.101562 187.304688 87.484375 C 187.382812 87.867188 187.417969 88.253906 187.417969 88.644531 L 187.417969 292.910156 C 187.425781 293.492188 187.347656 294.0625 187.191406 294.625 C 187.03125 295.1875 186.796875 295.714844 186.488281 296.207031 C 186.175781 296.699219 185.804688 297.140625 185.367188 297.523438 C 184.929688 297.910156 184.445312 298.226562 183.917969 298.472656 C 183.109375 298.84375 182.261719 299.023438 181.375 299.015625 Z M 43.558594 79.5 C 43.105469 79.523438 42.679688 79.636719 42.277344 79.847656 C 41.765625 80.101562 41.363281 80.472656 41.0625 80.957031 C 40.765625 81.445312 40.621094 81.972656 40.625 82.542969 L 40.625 154.246094 C 40.621094 154.945312 40.753906 155.621094 41.023438 156.269531 C 41.289062 156.917969 41.671875 157.488281 42.167969 157.984375 L 179.320312 295.144531 C 179.726562 295.5625 180.210938 295.835938 180.78125 295.960938 C 181.351562 296.082031 181.910156 296.035156 182.449219 295.820312 C 183.039062 295.585938 183.507812 295.203125 183.859375 294.675781 C 184.210938 294.148438 184.378906 293.566406 184.371094 292.933594 L 184.371094 88.644531 C 184.371094 88.25 184.296875 87.875 184.144531 87.511719 C 183.996094 87.148438 183.78125 86.828125 183.503906 86.550781 C 183.226562 86.273438 182.90625 86.0625 182.546875 85.910156 C 182.183594 85.761719 181.804688 85.6875 181.414062 85.6875 L 130.761719 85.6875 C 130.367188 85.6875 129.992188 85.761719 129.628906 85.910156 C 129.265625 86.0625 128.945312 86.273438 128.667969 86.550781 C 128.390625 86.828125 128.179688 87.148438 128.027344 87.511719 C 127.878906 87.875 127.800781 88.25 127.800781 88.644531 L 127.800781 161.84375 C 127.808594 162.183594 127.65625 162.417969 127.34375 162.546875 C 127.027344 162.671875 126.753906 162.617188 126.523438 162.371094 L 95.246094 131.097656 L 45.664062 80.402344 C 45.09375 79.800781 44.390625 79.496094 43.558594 79.5 Z M 43.558594 79.5 " fill-opacity="1" fill-rule="nonzero"/></g><g clip-path="url(#c1e93965cb)"><g clip-path="url(#c62edcbf7d)"><path fill="url(#ca82dcaa81)" d="M 37.597656 239.714844 L 37.597656 299.023438 L 96.90625 299.023438 L 96.90625 239.714844 Z M 37.597656 239.714844 " fill-rule="nonzero"/></g></g></svg>